<svg width="111" height="110" viewBox="0 0 111 110" fill="none" xmlns="http://www.w3.org/2000/svg">
<circle cx="55" cy="55" r="55" fill="#E3E6F8"/>
<path d="M27.3252 64.7748V45.54L40.3733 54.0053V73.2432L27.3252 64.7748Z" fill="#4870FF"/>
<path d="M40.3739 73.5551C40.325 73.5545 40.2771 73.5395 40.2351 73.5114L27.1954 65.0461C27.1535 65.0189 27.1186 64.9799 27.0942 64.9328C27.0699 64.8858 27.0569 64.8324 27.0566 64.778V45.5401C27.0564 45.4851 27.0692 45.4311 27.0935 45.3835C27.1179 45.3358 27.153 45.2963 27.1954 45.2688C27.2376 45.2415 27.2854 45.2271 27.3341 45.2271C27.3829 45.2271 27.4307 45.2415 27.4729 45.2688L40.5154 53.7341C40.5577 53.7616 40.5929 53.8011 40.6172 53.8488C40.6416 53.8964 40.6543 53.9504 40.6542 54.0054V73.2433C40.6539 73.2977 40.6409 73.3511 40.6166 73.3981C40.5922 73.4452 40.5573 73.4842 40.5154 73.5114C40.4726 73.54 40.4237 73.5551 40.3739 73.5551ZM27.6089 64.5971L40.0964 72.7039V54.1862L27.6089 46.0795V64.5971Z" fill="#C7D3FF"/>
<path d="M40.376 73.2464V54.0085L68.5977 35.6873V54.9251L40.376 73.2464Z" fill="#C7D3FF"/>
<path d="M40.3761 73.5582C40.3275 73.5585 40.2797 73.5446 40.2374 73.5176C40.195 73.4902 40.1599 73.4506 40.1355 73.403C40.1112 73.3553 40.0984 73.3013 40.0986 73.2464V54.0085C40.0989 53.954 40.1119 53.9007 40.1362 53.8536C40.1606 53.8066 40.1954 53.7675 40.2374 53.7403L68.4591 35.4191C68.5013 35.3917 68.5492 35.3773 68.5979 35.3773C68.6466 35.3773 68.6944 35.3917 68.7366 35.4191C68.7786 35.4463 68.8135 35.4854 68.8378 35.5324C68.8621 35.5794 68.8751 35.6328 68.8754 35.6872V54.9251C68.8756 54.9801 68.8628 55.0341 68.8385 55.0817C68.8141 55.1294 68.779 55.1689 68.7366 55.1964L40.5149 73.5176C40.4726 73.5446 40.4247 73.5585 40.3761 73.5582ZM40.6536 54.1893V72.7069L68.3204 54.7443V36.2266L40.6536 54.1893Z" fill="#C7D3FF"/>
<path d="M40.3734 56.5839C40.3247 56.5843 40.2769 56.5703 40.2346 56.5434L27.1949 48.0781C27.1309 48.0367 27.0841 47.9685 27.0648 47.8884C27.0456 47.8083 27.0554 47.7229 27.0922 47.6509C27.129 47.579 27.1897 47.5264 27.261 47.5048C27.3323 47.4831 27.4084 47.4942 27.4724 47.5356L40.3845 55.9136L68.4591 37.6921C68.5232 37.6508 68.5992 37.6397 68.6705 37.6613C68.7418 37.683 68.8025 37.7355 68.8393 37.8075C68.8761 37.8794 68.886 37.9649 68.8667 38.045C68.8475 38.1251 68.8007 38.1933 68.7366 38.2346L40.5149 56.559C40.4705 56.5811 40.4217 56.5897 40.3734 56.5839Z" fill="#C7D3FF"/>
<path d="M40.3735 59.468C40.3249 59.4684 40.2771 59.4544 40.2348 59.4275L27.195 50.9622C27.1346 50.919 27.0914 50.8514 27.0744 50.7732C27.0573 50.6951 27.0678 50.6126 27.1037 50.543C27.1395 50.4734 27.1979 50.422 27.2666 50.3996C27.3353 50.3772 27.4091 50.3855 27.4725 50.4228L40.3846 58.7977L68.4593 40.5793C68.5227 40.5384 68.5979 40.5273 68.6685 40.5483C68.7392 40.5693 68.7996 40.6208 68.8367 40.6916C68.8552 40.727 68.8672 40.7661 68.8722 40.8068C68.8772 40.8474 68.8749 40.8888 68.8657 40.9285C68.8564 40.9682 68.8402 41.0054 68.8181 41.038C68.796 41.0707 68.7684 41.0981 68.7368 41.1187L40.515 59.4275C40.4719 59.455 40.4231 59.469 40.3735 59.468Z" fill="#C7D3FF"/>
<path d="M40.3735 62.3553C40.3247 62.3547 40.2768 62.3397 40.2348 62.3116L27.195 53.8464C27.1346 53.8032 27.0914 53.7355 27.0744 53.6574C27.0573 53.5793 27.0678 53.4968 27.1037 53.4272C27.1395 53.3576 27.1979 53.3062 27.2666 53.2838C27.3353 53.2614 27.4091 53.2697 27.4725 53.3069L40.3846 61.6818L68.4593 43.4635C68.5227 43.4262 68.5965 43.4179 68.6652 43.4403C68.734 43.4627 68.7924 43.5141 68.8282 43.5837C68.864 43.6534 68.8745 43.7358 68.8575 43.814C68.8404 43.8921 68.7972 43.9598 68.7368 44.0029L40.515 62.3116C40.4722 62.3402 40.4233 62.3553 40.3735 62.3553Z" fill="#C7D3FF"/>
<path d="M40.3741 65.2394C40.3255 65.2398 40.2776 65.2258 40.2353 65.1989L27.1956 56.7335C27.164 56.7129 27.1364 56.6855 27.1143 56.6528C27.0922 56.6202 27.076 56.583 27.0667 56.5433C27.0574 56.5036 27.0552 56.4622 27.0602 56.4216C27.0652 56.3809 27.0772 56.3418 27.0957 56.3064C27.1328 56.2356 27.1932 56.1841 27.2639 56.1631C27.3345 56.1421 27.4097 56.1532 27.4731 56.1941L40.3852 64.569L68.4598 46.3476C68.5239 46.3062 68.5999 46.2952 68.6712 46.3168C68.7425 46.3384 68.8032 46.391 68.84 46.4629C68.8768 46.5349 68.8867 46.6203 68.8674 46.7004C68.8482 46.7805 68.8014 46.8488 68.7373 46.8901L40.5156 65.1989C40.4725 65.2263 40.4236 65.2403 40.3741 65.2394Z" fill="#C7D3FF"/>
<path d="M40.3735 68.1267C40.3247 68.1261 40.2768 68.111 40.2348 68.083L27.195 59.6177C27.1346 59.5746 27.0914 59.5069 27.0744 59.4288C27.0573 59.3507 27.0678 59.2682 27.1037 59.1985C27.1395 59.1289 27.1979 59.0775 27.2666 59.0551C27.3353 59.0327 27.4091 59.041 27.4725 59.0783L40.3846 67.4532L68.4593 49.2349C68.5227 49.1976 68.5965 49.1893 68.6652 49.2117C68.734 49.2341 68.7924 49.2855 68.8282 49.3551C68.864 49.4247 68.8745 49.5072 68.8575 49.5853C68.8404 49.6634 68.7972 49.7311 68.7368 49.7743L40.515 68.0955C40.4711 68.1197 40.4223 68.1305 40.3735 68.1267Z" fill="#C7D3FF"/>
<path d="M40.3734 71.0107C40.3249 71.0099 40.2773 70.996 40.2346 70.9702L27.1949 62.5049C27.1309 62.4636 27.0841 62.3953 27.0648 62.3152C27.0456 62.2351 27.0554 62.1497 27.0922 62.0777C27.129 62.0058 27.1897 61.9532 27.261 61.9316C27.3323 61.91 27.4084 61.921 27.4724 61.9624L40.3845 70.3404L68.4591 52.1189C68.5232 52.0776 68.5992 52.0665 68.6705 52.0882C68.7418 52.1098 68.8025 52.1624 68.8393 52.2343C68.8761 52.3062 68.886 52.3917 68.8667 52.4718C68.8475 52.5519 68.8007 52.6201 68.7366 52.6615L40.5149 70.9702C40.4712 70.996 40.4227 71.0099 40.3734 71.0107Z" fill="#C7D3FF"/>
<path d="M57.1038 62.2992L51.5649 65.8942V46.7685L57.1038 43.1766V62.2992Z" fill="white"/>
<path d="M51.5651 66.206C51.5162 66.2054 51.4684 66.1903 51.4263 66.1623C51.3844 66.1351 51.3495 66.096 51.3252 66.049C51.3008 66.002 51.2879 65.9486 51.2876 65.8942V46.7685C51.2879 46.7141 51.3008 46.6607 51.3252 46.6137C51.3495 46.5667 51.3844 46.5276 51.4263 46.5004L56.9763 42.9054C57.0185 42.878 57.0664 42.8636 57.1151 42.8636C57.1638 42.8636 57.2117 42.878 57.2538 42.9054C57.2962 42.9328 57.3313 42.9724 57.3557 43.02C57.3801 43.0677 57.3928 43.1217 57.3926 43.1766V62.2991C57.3928 62.3541 57.3801 62.4081 57.3557 62.4557C57.3313 62.5034 57.2962 62.5429 57.2538 62.5704L51.7038 66.1623C51.6618 66.1903 51.614 66.2054 51.5651 66.206ZM51.8426 46.9494V65.3454L56.8376 62.1121V43.716L51.8426 46.9494Z" fill="#C7D3FF"/>
<path d="M27.3228 45.54L55.5473 27.2313L68.5981 35.6966L40.3736 54.0053L27.3228 45.54Z" fill="#4870FF"/>
<path d="M40.3739 54.3171C40.3253 54.3175 40.2774 54.3035 40.2351 54.2766L27.1954 45.8113C27.1533 45.7839 27.1184 45.7446 27.0942 45.6972C27.0699 45.6499 27.0571 45.5962 27.0571 45.5416C27.0571 45.487 27.0699 45.4333 27.0942 45.386C27.1184 45.3387 27.1533 45.2993 27.1954 45.2719L55.4088 26.9632C55.451 26.9358 55.4989 26.9214 55.5476 26.9214C55.5963 26.9214 55.6441 26.9358 55.6863 26.9632L68.7288 35.4285C68.7709 35.4559 68.8058 35.4952 68.83 35.5425C68.8543 35.5899 68.8671 35.6435 68.8671 35.6982C68.8671 35.7528 68.8543 35.8065 68.83 35.8538C68.8058 35.9011 68.7709 35.9405 68.7288 35.9679L40.5154 54.2766C40.4723 54.3041 40.4234 54.3181 40.3739 54.3171ZM27.8864 45.5401L40.3739 53.6468L68.0434 35.6966L55.5559 27.5899L27.8864 45.5401Z" fill="#C7D3FF"/>
<path d="M38.3865 50.3043L32.8809 46.7311L32.9558 46.6844C34.1907 45.8862 34.2129 44.5984 33.0224 43.7815L52.6805 31.029C53.9403 31.7992 55.9245 31.7836 57.1593 30.9854L57.2315 30.9355L62.7371 34.5056L62.6594 34.5523C61.4273 35.3537 61.4079 36.6414 62.5928 37.4583L42.9319 50.2108C41.6748 49.4407 39.6907 49.4531 38.4586 50.2544C38.4336 50.2692 38.4095 50.2859 38.3865 50.3043Z" fill="#4870FF"/>
<path d="M38.3864 50.6161C38.3376 50.6155 38.2897 50.6005 38.2477 50.5725L32.7449 47.0024C32.7013 46.9741 32.6653 46.9331 32.6409 46.8837C32.6164 46.8342 32.6044 46.7783 32.6061 46.7218C32.6075 46.6649 32.6228 46.6096 32.6502 46.5618C32.6776 46.514 32.7161 46.4755 32.7615 46.4505L32.8198 46.4162C33.3332 46.0826 33.619 45.6585 33.6245 45.222C33.6301 44.7855 33.3637 44.3802 32.8808 44.0497C32.8386 44.0215 32.8037 43.9813 32.7799 43.9331C32.756 43.8849 32.7439 43.8304 32.7449 43.7753C32.7456 43.7214 32.7588 43.6687 32.7831 43.6222C32.8075 43.5758 32.8421 43.5372 32.8836 43.5103L52.5417 30.7546C52.5839 30.7273 52.6318 30.7128 52.6805 30.7128C52.7292 30.7128 52.777 30.7273 52.8192 30.7546C53.9958 31.4749 55.8717 31.4562 57.0261 30.7141L57.0788 30.6767C57.1233 30.6451 57.1747 30.6283 57.2273 30.6283C57.2799 30.6283 57.3314 30.6451 57.3758 30.6767L62.8814 34.2499C62.9245 34.2785 62.96 34.3197 62.984 34.3692C63.008 34.4187 63.0196 34.4745 63.0176 34.5308C63.0156 34.5871 63.0001 34.6417 62.9727 34.6888C62.9453 34.736 62.907 34.7739 62.8619 34.7986L62.8064 34.836C62.2931 35.1697 62.0072 35.5906 62.0017 36.0271C61.9961 36.4636 62.2598 36.8721 62.7426 37.2057C62.7835 37.2337 62.8173 37.2731 62.8406 37.3201C62.864 37.3671 62.8761 37.42 62.8758 37.4739C62.875 37.5277 62.8619 37.5805 62.8375 37.6269C62.8132 37.6734 62.7786 37.7119 62.7371 37.7389L43.0762 50.4945C43.034 50.5219 42.9861 50.5363 42.9374 50.5363C42.8887 50.5363 42.8409 50.5219 42.7987 50.4945C41.6249 49.7743 39.7462 49.7899 38.5973 50.5319L38.5418 50.5693C38.4953 50.6018 38.4412 50.6181 38.3864 50.6161ZM33.4136 46.7186L38.3837 49.9426C39.089 49.5553 39.8614 49.3467 40.6464 49.3316C41.4313 49.3165 42.2096 49.4953 42.9263 49.8553L62.0738 37.4271C61.8786 37.2601 61.7194 37.0458 61.608 36.8002C61.4965 36.5546 61.4357 36.284 61.43 36.0084C61.4453 35.7112 61.522 35.4221 61.654 35.1639C61.7859 34.9058 61.9696 34.6857 62.1904 34.5211L57.2315 31.3034C56.5261 31.6908 55.7537 31.8994 54.9688 31.9144C54.1838 31.9295 53.4055 31.7507 52.6888 31.3907L33.5413 43.8189C33.7368 43.9858 33.8965 44.1999 34.0084 44.4455C34.1203 44.6911 34.1817 44.9618 34.1879 45.2376C34.1695 45.5349 34.0901 45.8234 33.9557 46.0804C33.8214 46.3374 33.6358 46.5559 33.4136 46.7186Z" fill="#C7D3FF"/>
<path d="M38.5142 38.2814L44.0531 34.6895L57.1039 43.1548L51.565 46.7467L38.5142 38.2814Z" fill="white"/>
<path d="M51.5651 47.0585C51.5165 47.0589 51.4686 47.0449 51.4263 47.018L38.3838 38.5527C38.3411 38.5255 38.3056 38.486 38.2809 38.4384C38.2562 38.3907 38.2432 38.3366 38.2432 38.2814C38.2432 38.2263 38.2562 38.1721 38.2809 38.1244C38.3056 38.0768 38.3411 38.0373 38.3838 38.0101L43.9338 34.4182C43.976 34.3909 44.0239 34.3765 44.0726 34.3765C44.1213 34.3765 44.1692 34.3909 44.2113 34.4182L57.2538 42.8835C57.2962 42.911 57.3313 42.9506 57.3557 42.9982C57.3801 43.0458 57.3928 43.0999 57.3926 43.1548C57.3923 43.2092 57.3793 43.2626 57.355 43.3096C57.3307 43.3567 57.2958 43.3957 57.2538 43.4229L51.7038 47.018C51.6616 47.0449 51.6137 47.0589 51.5651 47.0585ZM39.0776 38.2814L51.5651 46.3881L56.5601 43.1548L44.0726 35.0481L39.0776 38.2814Z" fill="#C7D3FF"/>
<path d="M42.4048 74.2971V55.0592L55.4556 63.5276V82.7624L42.4048 74.2971Z" fill="#4870FF"/>
<path d="M55.4528 83.0618C55.4042 83.0622 55.3564 83.0482 55.3141 83.0212L42.2716 74.5559C42.2292 74.5285 42.1941 74.4889 42.1697 74.4413C42.1454 74.3936 42.1326 74.3396 42.1328 74.2847V55.0624C42.1326 55.0074 42.1454 54.9534 42.1697 54.9058C42.1941 54.8581 42.2292 54.8186 42.2716 54.7911C42.3138 54.7637 42.3616 54.7493 42.4103 54.7493C42.459 54.7493 42.5069 54.7637 42.5491 54.7911L55.5916 63.2564C55.6339 63.2839 55.6691 63.3234 55.6934 63.3711C55.7178 63.4187 55.7305 63.4727 55.7303 63.5277V82.75C55.7305 82.8049 55.7178 82.8589 55.6934 82.9066C55.6691 82.9542 55.6339 82.9938 55.5916 83.0212C55.5493 83.0482 55.5014 83.0622 55.4528 83.0618ZM42.6878 74.107L55.1753 82.2137V63.7054L42.6878 55.5987V74.107Z" fill="#C7D3FF"/>
<path d="M55.4556 82.7686V63.5307L83.6773 45.2095V64.4474L55.4556 82.7686Z" fill="#4870FF"/>
<path d="M55.4552 83.0804C55.4064 83.0799 55.3585 83.0648 55.3165 83.0368C55.2745 83.0096 55.2397 82.9705 55.2153 82.9235C55.191 82.8764 55.178 82.8231 55.1777 82.7686V63.5307C55.1775 63.4758 55.1903 63.4218 55.2146 63.3741C55.239 63.3265 55.2741 63.2869 55.3165 63.2595L83.5272 44.9383C83.5693 44.9109 83.6172 44.8965 83.6659 44.8965C83.7146 44.8965 83.7625 44.9109 83.8047 44.9383C83.847 44.9657 83.8821 45.0053 83.9065 45.0529C83.9309 45.1006 83.9436 45.1546 83.9434 45.2095V64.4474C83.9431 64.5018 83.9302 64.5552 83.9058 64.6023C83.8815 64.6493 83.8466 64.6884 83.8047 64.7156L55.5829 83.0368C55.5441 83.0628 55.5003 83.0778 55.4552 83.0804ZM55.7327 63.7116V82.2292L83.3995 64.2666V45.7489L55.7327 63.7116Z" fill="#C7D3FF"/>
<path d="M55.4529 66.1062C55.4041 66.1056 55.3562 66.0905 55.3142 66.0625L42.2717 57.5972C42.2113 57.5541 42.1681 57.4864 42.151 57.4083C42.134 57.3302 42.1445 57.2477 42.1803 57.1781C42.2161 57.1084 42.2745 57.057 42.3433 57.0346C42.412 57.0122 42.4858 57.0205 42.5492 57.0578L55.4613 65.4327L83.5276 47.205C83.591 47.1677 83.6648 47.1594 83.7336 47.1818C83.8023 47.2042 83.8607 47.2556 83.8965 47.3253C83.9323 47.3949 83.9428 47.4774 83.9258 47.5555C83.9088 47.6336 83.8655 47.7013 83.8051 47.7444L55.5917 66.0625C55.5497 66.0905 55.5018 66.1056 55.4529 66.1062Z" fill="#C7D3FF"/>
<path d="M55.4525 68.9904C55.4039 68.9908 55.3561 68.9768 55.3138 68.9498L42.2713 60.4845C42.2397 60.4639 42.2121 60.4365 42.19 60.4038C42.1679 60.3712 42.1517 60.3339 42.1424 60.2943C42.1331 60.2546 42.1309 60.2132 42.1359 60.1726C42.1409 60.1319 42.1529 60.0928 42.1714 60.0574C42.2084 59.9866 42.2689 59.9351 42.3395 59.9141C42.4102 59.8931 42.4854 59.9042 42.5488 59.9451L55.4609 68.32L83.5272 50.1017C83.5906 50.0608 83.6658 50.0496 83.7364 50.0706C83.8071 50.0916 83.8675 50.1431 83.9046 50.2139C83.9401 50.2849 83.9496 50.3686 83.9309 50.4472C83.9123 50.5259 83.867 50.5932 83.8047 50.6349L55.5913 68.9498C55.549 68.9768 55.5011 68.9908 55.4525 68.9904Z" fill="#C7D3FF"/>
<path d="M55.4525 71.8776C55.4037 71.877 55.3558 71.8619 55.3138 71.8339L42.2713 63.3686C42.2397 63.348 42.2121 63.3206 42.19 63.2879C42.1679 63.2553 42.1517 63.218 42.1424 63.1783C42.1331 63.1387 42.1309 63.0973 42.1359 63.0567C42.1409 63.016 42.1529 62.9769 42.1714 62.9415C42.2084 62.8707 42.2689 62.8192 42.3395 62.7982C42.4102 62.7771 42.4854 62.7883 42.5488 62.8292L55.4525 71.2134L83.5272 52.9858C83.5906 52.9449 83.6658 52.9337 83.7365 52.9547C83.8071 52.9757 83.8675 53.0272 83.9046 53.098C83.9231 53.1334 83.9352 53.1726 83.9401 53.2132C83.9451 53.2539 83.9429 53.2952 83.9336 53.3349C83.9243 53.3746 83.9082 53.4118 83.886 53.4445C83.8639 53.4771 83.8363 53.5046 83.8047 53.5252L55.5913 71.837C55.549 71.864 55.5011 71.8779 55.4525 71.8776Z" fill="#C7D3FF"/>
<path d="M55.4529 74.7617C55.4045 74.7608 55.3569 74.7469 55.3142 74.7211L42.2717 66.2527C42.2113 66.2096 42.1681 66.1419 42.151 66.0638C42.134 65.9857 42.1445 65.9032 42.1803 65.8335C42.2161 65.7639 42.2745 65.7125 42.3433 65.6901C42.412 65.6677 42.4858 65.676 42.5492 65.7133L55.4613 74.0913L83.5276 55.8699C83.591 55.8326 83.6648 55.8243 83.7336 55.8467C83.8023 55.8691 83.8607 55.9205 83.8965 55.9901C83.9323 56.0597 83.9428 56.1422 83.9258 56.2203C83.9088 56.2984 83.8655 56.3661 83.8051 56.4093L55.5917 74.7211C55.549 74.7469 55.5014 74.7608 55.4529 74.7617Z" fill="#C7D3FF"/>
<path d="M55.4525 77.6458C55.4039 77.6462 55.3561 77.6322 55.3138 77.6053L42.2713 69.14C42.2397 69.1194 42.2121 69.0919 42.19 69.0593C42.1679 69.0266 42.1517 68.9894 42.1424 68.9497C42.1331 68.91 42.1309 68.8687 42.1359 68.828C42.1409 68.7874 42.1529 68.7482 42.1714 68.7128C42.2084 68.642 42.2689 68.5905 42.3395 68.5695C42.4102 68.5485 42.4854 68.5597 42.5488 68.6006L55.4609 76.9755L83.5272 58.7571C83.5906 58.7162 83.6658 58.7051 83.7365 58.7261C83.8071 58.7471 83.8675 58.7986 83.9046 58.8694C83.9231 58.9048 83.9352 58.9439 83.9401 58.9846C83.9451 59.0252 83.9429 59.0666 83.9336 59.1063C83.9243 59.1459 83.9082 59.1832 83.886 59.2158C83.8639 59.2485 83.8363 59.2759 83.8047 59.2965L55.5913 77.6053C55.549 77.6322 55.5011 77.6462 55.4525 77.6458Z" fill="#C7D3FF"/>
<path d="M55.4529 80.533C55.4041 80.5324 55.3562 80.5174 55.3142 80.4894L42.2717 72.0241C42.2113 71.9809 42.1681 71.9132 42.151 71.8351C42.134 71.757 42.1445 71.6745 42.1803 71.6049C42.2161 71.5353 42.2745 71.4839 42.3433 71.4615C42.412 71.4391 42.4858 71.4474 42.5492 71.4847L55.4613 79.8595L83.5276 61.6412C83.591 61.604 83.6648 61.5957 83.7336 61.6181C83.8023 61.6405 83.8607 61.6918 83.8965 61.7615C83.9323 61.8311 83.9428 61.9136 83.9258 61.9917C83.9088 62.0698 83.8655 62.1375 83.8051 62.1806L55.5917 80.4894C55.5497 80.5174 55.5018 80.5324 55.4529 80.533Z" fill="#C7D3FF"/>
<path d="M72.183 71.8214L66.644 75.4133V56.2908L72.183 52.6989V71.8214Z" fill="white"/>
<path d="M66.6442 75.7252C66.5956 75.7256 66.5477 75.7116 66.5055 75.6847C66.4631 75.6572 66.428 75.6176 66.4036 75.57C66.3792 75.5224 66.3665 75.4683 66.3667 75.4134V56.2909C66.367 56.2365 66.38 56.1831 66.4043 56.136C66.4286 56.089 66.4635 56.0499 66.5055 56.0227L72.0554 52.4277C72.0976 52.4003 72.1455 52.3859 72.1942 52.3859C72.2429 52.3859 72.2908 52.4003 72.3329 52.4277C72.3753 52.4552 72.4104 52.4947 72.4348 52.5424C72.4592 52.59 72.4719 52.644 72.4717 52.699V71.8371C72.4719 71.892 72.4592 71.946 72.4348 71.9937C72.4104 72.0413 72.3753 72.0809 72.3329 72.1083L66.783 75.7002C66.7394 75.7218 66.6916 75.7304 66.6442 75.7252ZM66.9217 56.4717V74.8678L71.9167 71.6375V53.2415L66.9217 56.4717Z" fill="#C7D3FF"/>
<path d="M42.4019 55.0623L70.6264 36.7536L83.6772 45.2189L55.4527 63.5276L42.4019 55.0623Z" fill="#4870FF"/>
<path d="M55.4528 63.8394C55.4042 63.8398 55.3563 63.8258 55.314 63.7989L42.2715 55.3336C42.2288 55.3064 42.1933 55.267 42.1686 55.2193C42.1439 55.1717 42.1309 55.1175 42.1309 55.0623C42.1309 55.0072 42.1439 54.953 42.1686 54.9054C42.1933 54.8577 42.2288 54.8183 42.2715 54.7911L70.485 36.4823C70.5271 36.455 70.575 36.4406 70.6237 36.4406C70.6724 36.4406 70.7203 36.455 70.7625 36.4823L83.805 44.9476C83.8477 44.9748 83.8832 45.0143 83.9079 45.0619C83.9326 45.1096 83.9456 45.1637 83.9456 45.2189C83.9456 45.274 83.9326 45.3282 83.9079 45.3759C83.8832 45.4235 83.8477 45.463 83.805 45.4902L55.5915 63.7989C55.5492 63.8258 55.5014 63.8398 55.4528 63.8394ZM42.9653 55.0623L55.4528 63.1691L83.1223 45.2189L70.6348 37.1122L42.9653 55.0623Z" fill="#C7D3FF"/>
<path d="M53.466 59.8235L47.9604 56.2472L48.0381 56.2004C49.2702 55.3991 49.2924 54.1145 48.102 53.2976L67.7628 40.5451C69.0199 41.3152 71.0068 41.2996 72.2389 40.5014L72.3111 40.4515L77.8167 44.0216L77.739 44.0684C76.5069 44.8697 76.4874 46.1574 77.6724 46.9743L58.0115 59.7269C56.7544 58.9567 54.7703 58.9692 53.5382 59.7674L53.466 59.8235Z" fill="#4870FF"/>
<path d="M53.4658 60.1353C53.4172 60.1357 53.3694 60.1217 53.3271 60.0947L47.8215 56.5247C47.7775 56.4965 47.7412 56.4554 47.7165 56.4058C47.6917 56.3562 47.6796 56.2999 47.6813 56.2431C47.683 56.1862 47.6985 56.131 47.7262 56.0834C47.7538 56.0357 47.7925 55.9975 47.8381 55.9728L47.8936 55.9385C48.4098 55.6049 48.6956 55.1808 48.7011 54.7443C48.7067 54.3078 48.4403 53.9024 47.9574 53.5688C47.916 53.5412 47.8817 53.502 47.8579 53.455C47.8341 53.4079 47.8215 53.3548 47.8215 53.3007C47.8215 53.2466 47.8341 53.1934 47.8579 53.1464C47.8817 53.0994 47.916 53.0601 47.9574 53.0325L67.6183 40.28C67.6605 40.2526 67.7084 40.2382 67.7571 40.2382C67.8058 40.2382 67.8536 40.2526 67.8958 40.28C69.0696 41.0003 70.9483 40.9816 72.0999 40.2395L72.1554 40.2021C72.1995 40.1711 72.2505 40.1547 72.3025 40.1547C72.3545 40.1547 72.4055 40.1711 72.4496 40.2021L77.9552 43.7721C77.9992 43.8003 78.0355 43.8413 78.0602 43.891C78.0849 43.9406 78.0971 43.9969 78.0953 44.0537C78.0936 44.1106 78.0781 44.1658 78.0505 44.2134C78.0228 44.2611 77.9841 44.2993 77.9385 44.324L77.883 44.3583C77.3669 44.6919 77.0811 45.116 77.0755 45.5525C77.07 45.989 77.3336 46.3975 77.8164 46.728C77.8578 46.7556 77.8921 46.7948 77.916 46.8418C77.9398 46.8889 77.9523 46.942 77.9523 46.9961C77.9523 47.0502 77.9398 47.1034 77.916 47.1504C77.8921 47.1974 77.8578 47.2367 77.8164 47.2643L58.1556 60.0199C58.1134 60.0473 58.0655 60.0617 58.0168 60.0617C57.9681 60.0617 57.9203 60.0473 57.8781 60.0199C56.7015 59.2997 54.8256 59.3152 53.6739 60.0573C53.6546 60.0681 53.636 60.0807 53.6184 60.0947C53.5721 60.1245 53.5191 60.1385 53.4658 60.1353ZM48.493 56.2472L53.4658 59.4711C54.1682 59.0817 54.9381 58.8703 55.7211 58.852C56.5042 58.8337 57.2812 59.0088 57.9974 59.3651L77.1449 46.9369C76.9498 46.7697 76.7907 46.5554 76.6793 46.3099C76.5678 46.0643 76.5069 45.7938 76.5011 45.5182C76.5173 45.2205 76.5947 44.931 76.7271 44.6724C76.8594 44.4139 77.0433 44.1932 77.2642 44.0278L72.2914 40.8038C71.5863 41.1918 70.8138 41.4008 70.0287 41.4159C69.2437 41.4309 68.4653 41.2518 67.7487 40.8911L48.6012 53.3194C48.7948 53.4881 48.9529 53.7027 49.0642 53.9479C49.1755 54.1931 49.2372 54.4629 49.245 54.7381C49.2332 55.0381 49.1591 55.3309 49.0285 55.5929C48.8979 55.855 48.7145 56.079 48.493 56.2472Z" fill="#C7D3FF"/>
<path d="M53.5933 47.8037L59.1322 44.2087L72.183 52.674L66.6441 56.269L53.5933 47.8037Z" fill="white"/>
<path d="M66.6442 56.5808C66.5954 56.5803 66.5475 56.5652 66.5055 56.5372L53.463 48.0719C53.4209 48.0445 53.386 48.0051 53.3617 47.9578C53.3375 47.9105 53.3247 47.8568 53.3247 47.8022C53.3247 47.7476 53.3375 47.6939 53.3617 47.6466C53.386 47.5992 53.4209 47.5599 53.463 47.5325L59.013 43.9406C59.0552 43.9132 59.103 43.8988 59.1517 43.8988C59.2004 43.8988 59.2483 43.9132 59.2905 43.9406L72.333 52.4059C72.375 52.4333 72.4099 52.4726 72.4342 52.52C72.4585 52.5673 72.4712 52.621 72.4712 52.6756C72.4712 52.7302 72.4585 52.7839 72.4342 52.8312C72.4099 52.8785 72.375 52.9179 72.333 52.9453L66.783 56.5372C66.741 56.5652 66.6931 56.5803 66.6442 56.5808ZM54.1567 47.8037L66.6442 55.9105L71.6392 52.6771L59.1517 44.5704L54.1567 47.8037Z" fill="#C7D3FF"/>
</svg>
