<svg width="110" height="110" viewBox="0 0 110 110" fill="none" xmlns="http://www.w3.org/2000/svg">
<circle cx="55" cy="55" r="55" fill="#E3E6F8"/>
<g clip-path="url(#clip0)">
<path d="M77.5 38H32.5C28.3633 38 25 40.2982 25 43.125V66.1875C25 69.0143 28.3633 71.3125 32.5 71.3125H43.75V78.0391C43.75 78.8238 45.0625 79.2803 45.9883 78.8158L60.625 71.3125H77.5C81.6367 71.3125 85 69.0143 85 66.1875V43.125C85 40.2982 81.6367 38 77.5 38Z" fill="#4870FF"/>
<path d="M64 43.3125C58.4758 43.3125 54 47.6484 54 53C54 58.3516 58.4758 62.6875 64 62.6875C69.5242 62.6875 74 58.3516 74 53C74 47.6484 69.5242 43.3125 64 43.3125ZM64 60.8125C59.5524 60.8125 55.9355 57.3086 55.9355 53C55.9355 48.6914 59.5524 45.1875 64 45.1875C68.4476 45.1875 72.0645 48.6914 72.0645 53C72.0645 57.3086 68.4476 60.8125 64 60.8125ZM60.7742 52.375C61.4879 52.375 62.0645 51.8164 62.0645 51.125C62.0645 50.4336 61.4879 49.875 60.7742 49.875C60.0605 49.875 59.4839 50.4336 59.4839 51.125C59.4839 51.8164 60.0605 52.375 60.7742 52.375ZM67.2258 52.375C67.9395 52.375 68.5161 51.8164 68.5161 51.125C68.5161 50.4336 67.9395 49.875 67.2258 49.875C66.5121 49.875 65.9355 50.4336 65.9355 51.125C65.9355 51.8164 66.5121 52.375 67.2258 52.375ZM67.3871 55.2109C66.5484 56.1875 65.3105 56.75 64 56.75C62.6895 56.75 61.4516 56.1914 60.6129 55.2109C60.2702 54.8125 59.6573 54.7617 59.25 55.0898C58.8387 55.4219 58.7863 56.0117 59.125 56.4102C60.3347 57.8164 62.1129 58.6211 64 58.6211C65.8871 58.6211 67.6653 57.8164 68.875 56.4102C69.2177 56.0117 69.1613 55.4219 68.75 55.0898C68.3427 54.7617 67.7298 54.8125 67.3871 55.2109Z" fill="white"/>
<circle cx="48.5" cy="60.5" r="1.5" fill="white"/>
<circle cx="42.5" cy="60.5" r="1.5" fill="white"/>
<circle cx="36.5" cy="60.5" r="1.5" fill="white"/>
</g>
<defs>
<clipPath id="clip0">
<rect width="60" height="41" fill="white" transform="translate(25 38)"/>
</clipPath>
</defs>
</svg>
