<svg width="28" height="27" viewBox="0 0 28 27" fill="none" xmlns="http://www.w3.org/2000/svg">
<path d="M18.6644 16.6545L18.6492 16.4295C19.9427 14.7881 20.5414 12.7343 20.3244 10.6834C20.1074 8.63251 19.0907 6.73764 17.4801 5.38202C15.8694 4.0264 13.785 3.3112 11.6483 3.38107C9.51164 3.45094 7.48224 4.30067 5.97052 5.75839C4.45881 7.21611 3.57761 9.17304 3.50516 11.2334C3.4327 13.2937 4.17438 15.3037 5.58021 16.8569C6.98604 18.41 8.95109 19.3903 11.0779 19.5996C13.2048 19.8089 15.3347 19.2315 17.0369 17.9842L17.2714 17.9977L23.107 23.625L24.5 22.2817L18.6644 16.6545ZM11.9339 17.7401C10.2197 17.7401 8.5757 17.0835 7.36359 15.9147C6.15148 14.7458 5.47052 13.1606 5.47052 11.5076C5.47052 9.85466 6.15148 8.2694 7.36359 7.10058C8.5757 5.93176 10.2197 5.27512 11.9339 5.27512C13.648 5.27512 15.292 5.93176 16.5041 7.10058C17.7162 8.2694 18.3972 9.85466 18.3972 11.5076C18.3972 13.1606 17.7162 14.7458 16.5041 15.9147C15.292 17.0835 13.648 17.7401 11.9339 17.7401Z" fill="#fff"/>
</svg>
