<svg width="110" height="110" viewBox="0 0 110 110" fill="none" xmlns="http://www.w3.org/2000/svg">
<circle cx="55" cy="55" r="55" fill="#E3E6F8"/>
<path d="M68.7939 47.0715H59.7871V53.2805H68.7939V47.0715Z" fill="#E6E6E6"/>
<path d="M74.0982 24.3365C75.3132 24.3365 76.2982 22.9851 76.2982 21.318C76.2982 19.651 75.3132 18.2996 74.0982 18.2996C72.8832 18.2996 71.8982 19.651 71.8982 21.318C71.8982 22.9851 72.8832 24.3365 74.0982 24.3365Z" fill="#0B0E34"/>
<path opacity="0.45" d="M55.0001 90.6974C74.155 90.6974 89.6831 88.1148 89.6831 84.9291C89.6831 81.7433 74.155 79.1608 55.0001 79.1608C35.8452 79.1608 20.3171 81.7433 20.3171 84.9291C20.3171 88.1148 35.8452 90.6974 55.0001 90.6974Z" fill="#E6E6E6"/>
<path d="M62.0797 83.8304C62.0797 83.8304 61.9301 84.905 61.2701 85.1283C60.6101 85.3517 60.5375 86.2874 61.1667 86.39C61.7959 86.4927 63.2237 85.0951 63.2237 85.0951L62.9751 83.4259L62.0797 83.8304Z" fill="#4870FF"/>
<path d="M67.7336 83.8304C67.7336 83.8304 67.5862 84.905 66.924 85.1283C66.2618 85.3517 66.1936 86.2874 66.8206 86.39C67.4476 86.4927 68.8798 85.0951 68.8798 85.0951L68.64 83.4259L67.7336 83.8304Z" fill="#4870FF"/>
<path d="M76.0407 55.1309H30.1421V82.7649H76.0407V55.1309Z" fill="black"/>
<path d="M76.0407 53.2805H30.1421V57.615H76.0407V53.2805Z" fill="#E6E6E6"/>
<path d="M73.667 69.5078H71.7222V83.8908H73.667V69.5078Z" fill="white"/>
<path opacity="0.08" d="M73.667 69.5078H71.7222V83.8908H73.667V69.5078Z" fill="black"/>
<path d="M32.4741 57.6151H30.1421V82.768H32.4741V57.6151Z" fill="#E6E6E6"/>
<path opacity="0.61" d="M42.2069 57.6151H32.4719V82.768H42.2069V57.6151Z" fill="#E6E6E6"/>
<path d="M76.0012 57.6151H73.6692V82.768H76.0012V57.6151Z" fill="#E6E6E6"/>
<path opacity="0.08" d="M64.2114 53.2926L60.731 53.2625L56.6038 62.0462C55.5333 64.3291 54.9102 66.9523 54.7946 69.6622C54.6789 72.3721 55.0748 75.0771 55.9438 77.5158L57.8182 82.78H76.0078L76.0496 71.5453L76.1948 54.4759L64.2114 53.2926Z" fill="black"/>
<path d="M39.6461 45.671L38.3943 53.2503H45.4563L45.1659 52.2301H42.4269L42.8955 45.9396L39.6461 45.671Z" fill="#A5A5A5"/>
<path d="M49.5859 30.8081H32.1333V47.0716H49.5859V30.8081Z" fill="#4870FF"/>
<path opacity="0.46" d="M37.8707 33.2168H34.0405V39.7337H37.8707V33.2168Z" fill="white"/>
<path opacity="0.46" d="M47.6784 33.2168H38.9202V39.7337H47.6784V33.2168Z" fill="white"/>
<path opacity="0.46" d="M47.6761 41.0739H34.0405V44.6598H47.6761V41.0739Z" fill="white"/>
<path d="M49.5859 45.671H32.1333V48.7498H49.5859V45.671Z" fill="#E6E6E6"/>
<path d="M41.5074 47.9922C41.8658 47.9922 42.1564 47.5935 42.1564 47.1017C42.1564 46.61 41.8658 46.2113 41.5074 46.2113C41.149 46.2113 40.8584 46.61 40.8584 47.1017C40.8584 47.5935 41.149 47.9922 41.5074 47.9922Z" fill="#A5A5A5"/>
<path d="M41.1797 59.5649H33.5017V64.7718H41.1797V59.5649Z" fill="black"/>
<path d="M41.1797 67.6997H33.5017V72.9066H41.1797V67.6997Z" fill="black"/>
<path d="M37.1975 63.0664C37.5183 63.0664 37.7783 62.7096 37.7783 62.2695C37.7783 61.8294 37.5183 61.4727 37.1975 61.4727C36.8767 61.4727 36.6167 61.8294 36.6167 62.2695C36.6167 62.7096 36.8767 63.0664 37.1975 63.0664Z" fill="#A5A5A5"/>
<path d="M37.1975 71.0985C37.5183 71.0985 37.7783 70.7417 37.7783 70.3016C37.7783 69.8615 37.5183 69.5048 37.1975 69.5048C36.8767 69.5048 36.6167 69.8615 36.6167 70.3016C36.6167 70.7417 36.8767 71.0985 37.1975 71.0985Z" fill="#A5A5A5"/>
<path d="M68.3453 61.4727C68.3453 61.4727 66.1937 41.8919 71.2053 38.5323C76.2169 35.1728 84.3107 38.2758 80.6235 62.4929L80.4409 65.1854C80.3204 66.92 79.733 68.5308 78.7932 69.703C77.8534 70.8751 76.6289 71.5245 75.3589 71.5241H65.1817C63.3139 71.5241 62.7441 68.0167 64.4447 66.9602C65.0291 66.6019 65.6398 66.3307 66.2663 66.1513C66.7842 65.9981 67.2534 65.6233 67.606 65.0808C67.9587 64.5384 68.1767 63.8562 68.2287 63.1328L68.3453 61.4727Z" fill="white"/>
<path d="M64.9835 58.8557L60.2117 65.5507C59.253 66.8956 58.615 68.6087 58.3824 70.4627C58.1498 72.3166 58.3336 74.2238 58.9093 75.9312L61.5999 83.8909L62.9837 83.426L61.6527 76.2783C61.3893 74.863 61.4678 73.3687 61.8765 72.0199C62.2851 70.6711 63.0017 69.5407 63.9187 68.7985L69.3769 64.3825L64.9835 58.8557Z" fill="#FAAD98"/>
<path d="M64.9835 58.8557L76.1859 59.7613C76.1859 59.7613 76.1683 65.2126 74.8329 66.4441C74.0937 67.1293 71.3481 68.4846 69.0491 69.5562C68.1449 69.9759 67.3987 70.8698 66.9736 72.0424C66.5486 73.2151 66.4793 74.5709 66.7809 75.8135L68.6399 83.426L67.0713 83.9965L63.6855 74.8807C63.2025 73.5798 63.0555 72.0924 63.2685 70.6619C63.4815 69.2314 64.0419 67.9424 64.8581 67.0056L68.2373 63.1268L64.9835 58.8557Z" fill="#FAAD98"/>
<path d="M40.4954 75.6957H33.946V82.7649H40.4954V75.6957Z" fill="black"/>
<path d="M71.7223 81.5967H73.6693L76.8065 86.396H68.8799L71.7223 81.5967Z" fill="white"/>
<path opacity="0.33" d="M71.7223 81.5967H73.6693L76.8065 86.396H68.8799L71.7223 81.5967Z" fill="white"/>
<path d="M77.2201 58.0466C77.2201 58.0466 78.7865 63.3953 75.2577 66.45C71.7289 69.5047 67.6633 68.6444 67.2255 72.2304C67.2255 72.2304 58.0163 67.1865 57.9855 67.1322C57.9547 67.0779 62.9091 58.0104 67.0341 57.2166L77.5743 58.0466" fill="#0B0E34"/>
<path d="M68.2924 30.1199C68.2924 30.1199 68.1472 30.2134 67.8942 30.3855C66.066 31.6321 57.6246 36.4949 58.0096 41.0799C58.4496 46.3019 68.9832 43.5762 68.9832 43.5762L70.8598 34.6234C70.8598 34.6234 63.9144 38.306 63.712 37.6419L68.992 31.7468" fill="#4870FF"/>
<path opacity="0.46" d="M68.2924 30.1199C68.2924 30.1199 68.1472 30.2134 67.8942 30.3855C66.066 31.6321 57.6246 36.4949 58.0096 41.0799C58.4496 46.3019 68.9832 43.5762 68.9832 43.5762L70.8598 34.6234C70.8598 34.6234 63.9144 38.306 63.712 37.6419L68.992 31.7468" fill="white"/>
<path d="M69.3658 29.1449C69.4888 29.2286 69.5958 29.3505 69.6783 29.5011C69.7568 29.651 69.8086 29.8242 69.8296 30.0066C69.8506 30.189 69.8402 30.3756 69.7992 30.5515C69.6736 30.952 69.4608 31.2894 69.1899 31.5174C69.142 31.5742 69.0867 31.6182 69.0271 31.6472C68.9737 31.6664 68.918 31.6696 68.8637 31.6566C68.8094 31.6436 68.7578 31.6146 68.7125 31.5717C68.6223 31.4897 68.5428 31.3877 68.4771 31.2699C68.3756 31.0765 68.3081 30.8535 68.2799 30.6184C68.2516 30.3833 68.2634 30.1424 68.3143 29.9146C68.4023 29.5071 68.6487 29.0513 68.9743 29.0422C69.1089 29.0336 69.2431 29.0687 69.3658 29.1449Z" fill="#FAAD98"/>
<path d="M74.58 33.8386C74.2544 33.3043 73.579 31.9038 73.5636 29.498L72.16 29.8422C72.16 29.8422 71.94 33.4643 71.3284 34.3427L71.3416 34.3608L74.58 33.8386Z" fill="#FAAD98"/>
<path opacity="0.09" d="M74.58 33.8386C74.2544 33.3043 73.579 31.9038 73.5636 29.498L72.16 29.8422C72.16 29.8422 71.94 33.4643 71.3284 34.3427L71.3416 34.3608L74.58 33.8386Z" fill="black"/>
<path d="M71.0974 26.9897C71.0974 26.9897 71.1458 31.3212 72.8046 31.4722C74.4634 31.6231 73.8782 26.7302 73.8782 26.7302C73.8782 26.7302 73.6472 24.1524 72.6682 23.9834C71.6892 23.8143 70.6354 23.923 71.0974 26.9897Z" fill="#FAAD98"/>
<path d="M71.1591 27.9888C71.1591 27.9888 70.2791 27.7625 70.3825 28.3541C70.4859 28.9457 70.4001 29.7607 71.3461 29.2596L71.1591 27.9888Z" fill="#FAAD98"/>
<path d="M73.7439 27.3489C73.7439 27.3489 74.7141 26.878 74.7075 27.4817C74.7009 28.0854 74.7427 28.8793 73.7439 28.6408V27.3489Z" fill="#FAAD98"/>
<path d="M71.0423 27.859C71.0711 27.8911 71.1054 27.9126 71.142 27.9216C71.1785 27.9305 71.2161 27.9267 71.2513 27.9103C71.3484 27.8487 71.4264 27.7417 71.4713 27.6085C71.7168 27.0142 71.8177 26.3279 71.7595 25.6495C71.8938 26.1126 72.0843 26.5412 72.3227 26.9173C72.5611 27.2942 72.8974 27.5282 73.2599 27.5692C74.3379 27.6085 74.1795 25.9544 74.0453 24.9643C73.9595 24.3153 73.8099 23.5788 73.3853 23.1804C73.2123 23.0257 73.0051 22.9595 72.8001 22.9932C72.5383 22.9932 72.2853 22.8876 72.0213 22.9057C71.7184 22.9161 71.4262 23.0624 71.1897 23.3223C71.0044 23.5598 70.8607 23.8519 70.7695 24.1765C70.4688 25.2188 70.4807 26.3819 70.8025 27.4123C70.8534 27.5868 70.936 27.7405 71.0423 27.859Z" fill="#0B0E34"/>
<path d="M78.3661 48.7891C77.7061 51.9192 76.9515 55.0132 76.3245 57.4098C72.5361 57.5607 67.1681 58.9975 67.0581 57.2861C66.9965 56.3594 67.9271 56.4439 67.6587 55.1731C67.5025 54.4155 66.9041 50.8024 66.6401 49.9512C65.2101 45.3088 66.0021 40.3464 67.6323 37.3672C70.3405 32.4139 75.4159 32.0034 78.8523 34.6506C80.5353 35.9304 79.6817 42.4473 78.3661 48.7891Z" fill="#4870FF"/>
<path d="M71.5879 33.57C71.4229 33.7209 69.3483 40.2981 70.5649 48.8192C70.5649 48.8192 72.3447 37.171 74.1377 32.9361C74.1399 32.9361 72.4833 32.9784 71.5879 33.57Z" fill="white"/>
<path opacity="0.08" d="M78.9095 50.5519L77.6797 57.2498L76.3245 57.4098L67.0625 58.4965C67.0009 57.5728 67.9271 56.4439 67.6587 55.1611C70.9961 54.3823 75.0067 53.1779 73.5151 47.141C71.8739 40.5004 74.3951 35.8972 74.3951 35.8972L78.3705 48.7891L78.9095 50.5519Z" fill="black"/>
<path d="M74.2501 36.6911C74.295 36.2019 74.4148 35.7312 74.6016 35.31C74.7884 34.8887 75.038 34.5264 75.334 34.2468C75.63 33.9672 75.9658 33.7766 76.3193 33.6876C76.6728 33.5985 77.036 33.6129 77.3851 33.73C79.3475 34.4001 81.8115 36.516 82.1789 42.8638C82.8059 53.6367 80.5817 58.7229 80.5817 58.7229H68.2925V56.5828L76.8307 55.152C76.8307 55.152 73.5747 44.1014 74.2501 36.6911Z" fill="#4870FF"/>
<path opacity="0.46" d="M74.2501 36.6911C74.295 36.2019 74.4148 35.7312 74.6016 35.31C74.7884 34.8887 75.038 34.5264 75.334 34.2468C75.63 33.9672 75.9658 33.7766 76.3193 33.6876C76.6728 33.5985 77.036 33.6129 77.3851 33.73C79.3475 34.4001 81.8115 36.516 82.1789 42.8638C82.8059 53.6367 80.5817 58.7229 80.5817 58.7229H68.2925V56.5828L76.8307 55.152C76.8307 55.152 73.5747 44.1014 74.2501 36.6911Z" fill="white"/>
<path d="M71.0029 33.5277C71.0029 33.5277 70.0173 33.7752 69.6587 33.0447C69.3001 32.3142 68.8777 28.4929 68.8359 28.1095C68.7941 27.7262 69.5399 26.4584 69.7929 26.7029C70.0459 26.9474 70.5321 28.2997 70.3341 28.5653C70.1241 28.8045 69.8979 29.0158 69.6587 29.1962C69.6587 29.1962 69.8083 31.454 70.1361 31.78C70.4639 32.106 71.0007 31.5566 71.1811 31.9762C71.3615 32.3957 71.5001 33.4703 71.0029 33.5277Z" fill="white"/>
<path d="M70.3847 32.9089C70.3583 35.1215 70.6333 37.3068 70.8555 39.4862C71.0249 41.1524 71.2427 43.3438 70.7103 44.9194C70.4903 45.5231 69.9205 46.1057 69.5509 45.6529C69.2715 45.3058 69.4299 44.5813 69.7709 44.3882C69.9523 44.3122 70.1463 44.3142 70.3268 44.3941C70.5074 44.474 70.6658 44.6278 70.7807 44.8349C71.0026 45.257 71.1461 45.7471 71.1987 46.2626C71.3818 47.3229 71.402 48.4238 71.2581 49.4954C71.1076 50.5739 70.652 51.5268 69.9909 52.1456C69.7947 52.3351 69.5598 52.4344 69.3199 52.4293C69.2006 52.4222 69.0861 52.3625 68.9934 52.2593C68.9007 52.156 68.8347 52.0146 68.8051 51.8558C68.7871 51.6663 68.8199 51.4743 68.8975 51.3155C69.2275 50.567 70.1075 50.5549 70.5519 51.1797C70.9963 51.8045 71.0293 52.8368 70.7587 53.6307C70.4596 54.4062 70.0004 55.0436 69.4387 55.4629C68.4443 56.2869 66.6007 57.3223 65.4171 56.9269C64.8869 56.7518 64.4491 56.2477 64.0377 55.7527C63.6834 55.3271 63.3336 54.8924 62.9882 54.4547C62.6428 54.0171 62.271 53.5492 61.8882 53.1176C60.5737 51.6769 58.9917 50.7694 57.321 50.4975" stroke="#0B0E34" stroke-width="1.015" stroke-miterlimit="10"/>
<path d="M57.97 53.2806H52.0234L52.591 49.4109H57.4002L57.97 53.2806Z" fill="white"/>
<path d="M54.0101 48.2639H53.1741V49.4109H54.0101V48.2639Z" fill="white"/>
<path d="M56.8172 48.2639H55.9812V49.4109H56.8172V48.2639Z" fill="white"/>
<path d="M68.2505 56.8936C68.2505 56.8936 63.6305 55.0553 64.1805 58.6413H68.2505V56.8936Z" fill="#FAAD98"/>
<path d="M61.061 18.3026H56.1528C54.0946 18.3026 52.426 20.5919 52.426 23.4159V23.4189C52.426 26.2429 54.0946 28.5322 56.1528 28.5322H61.061C63.1193 28.5322 64.7878 26.2429 64.7878 23.4189V23.4159C64.7878 20.5919 63.1193 18.3026 61.061 18.3026Z" fill="#E6E6E6"/>
<path d="M60.8652 28.0492C60.8652 28.0492 62.0246 30.2497 64.3654 29.6007C64.3654 29.6007 62.293 29.6822 61.7078 27.1859L60.8652 28.0492Z" fill="#E6E6E6"/>
<path opacity="0.08" d="M56.1418 24.421C56.5464 24.421 56.8744 23.971 56.8744 23.4159C56.8744 22.8607 56.5464 22.4107 56.1418 22.4107C55.7372 22.4107 55.4092 22.8607 55.4092 23.4159C55.4092 23.971 55.7372 24.421 56.1418 24.421Z" fill="black"/>
<path opacity="0.08" d="M58.6059 24.421C59.0105 24.421 59.3385 23.971 59.3385 23.4159C59.3385 22.8607 59.0105 22.4107 58.6059 22.4107C58.2013 22.4107 57.8733 22.8607 57.8733 23.4159C57.8733 23.971 58.2013 24.421 58.6059 24.421Z" fill="black"/>
<path opacity="0.08" d="M61.072 24.421C61.4766 24.421 61.8046 23.971 61.8046 23.4159C61.8046 22.8607 61.4766 22.4107 61.072 22.4107C60.6674 22.4107 60.3394 22.8607 60.3394 23.4159C60.3394 23.971 60.6674 24.421 61.072 24.421Z" fill="black"/>
</svg>
