<svg width="24" height="24" viewBox="0 0 24 24" fill="none" xmlns="http://www.w3.org/2000/svg">
<path d="M16 9C15.7348 9 15.4804 8.85952 15.2929 8.60948C15.1054 8.35943 15 8.02029 15 7.66667V3.66667H9V7.66667C9 8.02029 8.89464 8.35943 8.70711 8.60948C8.51957 8.85952 8.26522 9 8 9C7.73478 9 7.48043 8.85952 7.29289 8.60948C7.10536 8.35943 7 8.02029 7 7.66667V3.66667C7 2.95942 7.21071 2.28115 7.58579 1.78105C7.96086 1.28095 8.46957 1 9 1H15C15.5304 1 16.0391 1.28095 16.4142 1.78105C16.7893 2.28115 17 2.95942 17 3.66667V7.66667C17 8.02029 16.8946 8.35943 16.7071 8.60948C16.5196 8.85952 16.2652 9 16 9Z" fill="#fff"/>
<path d="M20 5H4C3.46957 5 2.96086 5.21071 2.58579 5.58579C2.21071 5.96086 2 6.46957 2 7V20C2 20.7956 2.31607 21.5587 2.87868 22.1213C3.44129 22.6839 4.20435 23 5 23H19C19.7956 23 20.5587 22.6839 21.1213 22.1213C21.6839 21.5587 22 20.7956 22 20V7C22 6.46957 21.7893 5.96086 21.4142 5.58579C21.0391 5.21071 20.5304 5 20 5ZM20 20C20 20.2652 19.8946 20.5196 19.7071 20.7071C19.5196 20.8946 19.2652 21 19 21H5C4.73478 21 4.48043 20.8946 4.29289 20.7071C4.10536 20.5196 4 20.2652 4 20V7H20V20Z" fill="#fff"/>
</svg>
