<svg width="21" height="21" viewBox="0 0 21 21" fill="none" xmlns="http://www.w3.org/2000/svg">
<path d="M14.7 12.4688C13.3547 12.4688 12.7078 13.125 10.5 13.125C8.29219 13.125 7.65 12.4688 6.3 12.4688C2.82187 12.4688 0 14.9379 0 17.9812V19.0312C0 20.1182 1.00781 21 2.25 21H18.75C19.9922 21 21 20.1182 21 19.0312V17.9812C21 14.9379 18.1781 12.4688 14.7 12.4688ZM18.75 19.0312H2.25V17.9812C2.25 16.0289 4.06875 14.4375 6.3 14.4375C6.98437 14.4375 8.09531 15.0938 10.5 15.0938C12.9234 15.0938 14.0109 14.4375 14.7 14.4375C16.9312 14.4375 18.75 16.0289 18.75 17.9812V19.0312ZM10.5 11.8125C14.2266 11.8125 17.25 9.16699 17.25 5.90625C17.25 2.64551 14.2266 0 10.5 0C6.77344 0 3.75 2.64551 3.75 5.90625C3.75 9.16699 6.77344 11.8125 10.5 11.8125ZM10.5 1.96875C12.9797 1.96875 15 3.73652 15 5.90625C15 8.07598 12.9797 9.84375 10.5 9.84375C8.02031 9.84375 6 8.07598 6 5.90625C6 3.73652 8.02031 1.96875 10.5 1.96875Z" fill="black"/>
</svg>
